<?xml version="1.0"?><svg xmlns="http://www.w3.org/2000/svg" xmlns:xlink="http://www.w3.org/1999/xlink" version="1.1" viewBox="0 0 24 24" style="enable-background:new 0 0 24 24;" xml:space="preserve"><style type="text/css">
	.st0{opacity:0.2;fill:none;stroke:#000000;stroke-width:0.05;stroke-miterlimit:10;}
</style><g id="grid_system"/><g id="Layer_2"><path d="M18.44043,8.8335c0.84473-1.48877,0.77344-3.30127-0.18652-4.72949c-0.38672-0.57422-0.90918-1.05811-1.51172-1.3999   c-0.60156-0.3418-1.28418-0.54199-1.97559-0.57959c-1.72852-0.09229-3.31152,0.77441-4.15625,2.26318l-5.12109,9.01953   c-0.56055,0.98535-0.8125,2.10547-0.73047,3.24023l0.23828,3.25488c0.0498,0.69141,0.44042,1.30859,1.04395,1.65088   c0.31836,0.18018,0.6709,0.271,1.02344,0.271c0.31836,0,0.63574-0.07324,0.92871-0.22021l2.91797-1.46387   c1.01562-0.50928,1.84863-1.30029,2.40723-2.28711l5.12109-9.01953C18.43945,8.8335,18.43945,8.8335,18.44043,8.8335z    M14.6582,4.12158c0.38379,0.021,0.7627,0.13232,1.09766,0.32178c0.33398,0.18994,0.62402,0.4585,0.83789,0.77686   c0.53418,0.79443,0.5752,1.80078,0.10742,2.62598l-0.263,0.46307l-4.29718-2.56683L12.34961,5.375   C12.81836,4.55029,13.71387,4.07861,14.6582,4.12158z M11.5791,16.86621c-0.36328,0.64111-0.9043,1.15527-1.56445,1.48584   l-2.91797,1.46387c0,0.00049-0.10547-0.05957-0.10547-0.05957l-0.23828-3.25439c-0.05273-0.73779,0.11133-1.46631,0.47461-2.10742   l3.92572-6.91284l4.29724,2.56689L11.5791,16.86621z"/></g></svg>